<?xml version="1.0" encoding="utf-8"?>
<!-- Generator: Adobe Illustrator 19.2.0, SVG Export Plug-In . SVG Version: 6.00 Build 0)  -->
<svg version="1.1" xmlns="http://www.w3.org/2000/svg" xmlns:xlink="http://www.w3.org/1999/xlink" x="0px" y="0px"
	 viewBox="0 0 426 183.2" style="enable-background:new 0 0 426 183.2;" xml:space="preserve">
<style type="text/css">
	.st0{fill:none;}
	.st1{fill:#011E42;}
	.st2{fill:#10D3C4;}
	.st3{fill:#FFFFFF;}
	.st4{fill:#0A171E;}
</style>
<symbol  id="Logo_1" viewBox="-213 -91.6 426 183.3">
	<rect x="-213" y="-91.6" class="st0" width="426" height="183.3"/>
	<g>
		<path class="st1" d="M-86.5,7.6h22c6.2,0,11.1-1.8,14.3-4.9C-47.6,0-46.1-3.7-46.1-8v-0.1c0-8.1-4.9-13-11.7-15l13.3-18.7h-10.3
			l-12.1,17.2h-10.9v-17.2h-8.7V7.6z M-65.1-16.9c6.2,0,10.2,3.2,10.2,8.3v0.1c0,5.3-3.8,8.2-10.2,8.2h-12.6v-16.6H-65.1z"/>
		<path class="st1" d="M-10.8,8h8.1L19-41.8H9.8l-5,11.9h-23.4l-5.1-11.9h-8.9L-10.8,8z M1.6-22.2L-6.9-2.4l-8.5-19.8H1.6z"/>
		<path class="st1" d="M33.1,7.6h18.4C67.1,7.6,77.8-3.1,77.8-17v-0.1c0-13.9-10.7-24.7-26.3-24.7H33.1V7.6z M41.8-0.3v-33.6h9.7
			c10.4,0,17.2,7,17.2,16.7v0.1c0,9.7-6.8,16.8-17.2,16.8H41.8z"/>
		<path class="st1" d="M93.1,7.6h8.7v-49.4h-8.7V7.6z"/>
		<path class="st1" d="M162.4,7.6l-17.2-24.2l17.9-25.3h-10.2L139.8-23l-13-18.9h-10l17.9,25.1L117.6,7.6h10.2l12.3-17.9l12.4,17.9
			H162.4z"/>
	</g>
	<g>
		<path class="st2" d="M-126.9-31.4c-1.6,0-3.1,0.8-4,2l-19.5,27h-12.7v9.8h15.2c1.6,0,3.1-0.8,4-2l15.9-22.1l24.3,55.5
			c0.8,1.8,2.6,2.9,4.5,2.9h30.4V32H-96l-26.5-60.5c-0.7-1.6-2.2-2.7-4-2.9C-126.6-31.4-126.8-31.4-126.9-31.4z"/>
	</g>
</symbol>
<symbol  id="Logo_2" viewBox="-213 -91.6 426 183.3">
	<rect x="-213" y="-91.6" class="st0" width="426" height="183.3"/>
	<g>
		<path class="st1" d="M-86.5,7.6h22c6.2,0,11.1-1.8,14.3-4.9C-47.6,0-46.1-3.7-46.1-8v-0.1c0-8.1-4.9-13-11.7-15l13.3-18.7h-10.3
			l-12.1,17.2h-10.9v-17.2h-8.7V7.6z M-65.1-16.9c6.2,0,10.2,3.2,10.2,8.3v0.1c0,5.3-3.8,8.2-10.2,8.2h-12.6v-16.6H-65.1z"/>
		<path class="st1" d="M-10.8,8h8.1L19-41.8H9.8l-5,11.9h-23.4l-5.1-11.9h-8.9L-10.8,8z M1.6-22.2L-6.9-2.4l-8.5-19.8H1.6z"/>
		<path class="st1" d="M33.1,7.6h18.4C67.1,7.6,77.8-3.1,77.8-17v-0.1c0-13.9-10.7-24.7-26.3-24.7H33.1V7.6z M41.8-0.3v-33.6h9.7
			c10.4,0,17.2,7,17.2,16.7v0.1c0,9.7-6.8,16.8-17.2,16.8H41.8z"/>
		<path class="st1" d="M93.1,7.6h8.7v-49.4h-8.7V7.6z"/>
		<path class="st1" d="M162.4,7.6l-17.2-24.2l17.9-25.3h-10.2L139.8-23l-13-18.9h-10l17.9,25.1L117.6,7.6h10.2l12.3-17.9l12.4,17.9
			H162.4z"/>
	</g>
	<g>
		<path class="st1" d="M-126.9-31.4c-1.6,0-3.1,0.8-4,2l-19.5,27h-12.7v9.8h15.2c1.6,0,3.1-0.8,4-2l15.9-22.1l24.3,55.5
			c0.8,1.8,2.6,2.9,4.5,2.9h30.4V32H-96l-26.5-60.5c-0.7-1.6-2.2-2.7-4-2.9C-126.6-31.4-126.8-31.4-126.9-31.4z"/>
	</g>
</symbol>
<symbol  id="Logo_3" viewBox="-213 -91.6 426 183.3">
	<rect x="-213" y="-91.6" class="st0" width="426" height="183.3"/>
	<g>
		<path class="st3" d="M-86.5,7.6h22c6.2,0,11.1-1.8,14.3-4.9C-47.6,0-46.1-3.7-46.1-8v-0.1c0-8.1-4.9-13-11.7-15l13.3-18.7h-10.3
			l-12.1,17.2h-10.9v-17.2h-8.7V7.6z M-65.1-16.9c6.2,0,10.2,3.2,10.2,8.3v0.1c0,5.3-3.8,8.2-10.2,8.2h-12.6v-16.6H-65.1z"/>
		<path class="st3" d="M-10.8,8h8.1L19-41.8H9.8l-5,11.9h-23.4l-5.1-11.9h-8.9L-10.8,8z M1.6-22.2L-6.9-2.4l-8.5-19.8H1.6z"/>
		<path class="st3" d="M33.1,7.6h18.4C67.1,7.6,77.8-3.1,77.8-17v-0.1c0-13.9-10.7-24.7-26.3-24.7H33.1V7.6z M41.8-0.3v-33.6h9.7
			c10.4,0,17.2,7,17.2,16.7v0.1c0,9.7-6.8,16.8-17.2,16.8H41.8z"/>
		<path class="st3" d="M93.1,7.6h8.7v-49.4h-8.7V7.6z"/>
		<path class="st3" d="M162.4,7.6l-17.2-24.2l17.9-25.3h-10.2L139.8-23l-13-18.9h-10l17.9,25.1L117.6,7.6h10.2l12.3-17.9l12.4,17.9
			H162.4z"/>
	</g>
	<g>
		<path class="st2" d="M-126.9-31.4c-1.6,0-3.1,0.8-4,2l-19.5,27h-12.7v9.8h15.2c1.6,0,3.1-0.8,4-2l15.9-22.1l24.3,55.5
			c0.8,1.8,2.6,2.9,4.5,2.9h30.4V32H-96l-26.5-60.5c-0.7-1.6-2.2-2.7-4-2.9C-126.6-31.4-126.8-31.4-126.9-31.4z"/>
	</g>
</symbol>
<symbol  id="Logo_4" viewBox="-213 -91.6 426 183.3">
	<rect x="-213" y="-91.6" class="st0" width="426" height="183.3"/>
	<g>
		<path class="st3" d="M-86.5,7.6h22c6.2,0,11.1-1.8,14.3-4.9C-47.6,0-46.1-3.7-46.1-8v-0.1c0-8.1-4.9-13-11.7-15l13.3-18.7h-10.3
			l-12.1,17.2h-10.9v-17.2h-8.7V7.6z M-65.1-16.9c6.2,0,10.2,3.2,10.2,8.3v0.1c0,5.3-3.8,8.2-10.2,8.2h-12.6v-16.6H-65.1z"/>
		<path class="st3" d="M-10.8,8h8.1L19-41.8H9.8l-5,11.9h-23.4l-5.1-11.9h-8.9L-10.8,8z M1.6-22.2L-6.9-2.4l-8.5-19.8H1.6z"/>
		<path class="st3" d="M33.1,7.6h18.4C67.1,7.6,77.8-3.1,77.8-17v-0.1c0-13.9-10.7-24.7-26.3-24.7H33.1V7.6z M41.8-0.3v-33.6h9.7
			c10.4,0,17.2,7,17.2,16.7v0.1c0,9.7-6.8,16.8-17.2,16.8H41.8z"/>
		<path class="st3" d="M93.1,7.6h8.7v-49.4h-8.7V7.6z"/>
		<path class="st3" d="M162.4,7.6l-17.2-24.2l17.9-25.3h-10.2L139.8-23l-13-18.9h-10l17.9,25.1L117.6,7.6h10.2l12.3-17.9l12.4,17.9
			H162.4z"/>
	</g>
	<g>
		<path class="st3" d="M-126.9-31.4c-1.6,0-3.1,0.8-4,2l-19.5,27h-12.7v9.8h15.2c1.6,0,3.1-0.8,4-2l15.9-22.1l24.3,55.5
			c0.8,1.8,2.6,2.9,4.5,2.9h30.4V32H-96l-26.5-60.5c-0.7-1.6-2.2-2.7-4-2.9C-126.6-31.4-126.8-31.4-126.9-31.4z"/>
	</g>
</symbol>
<g id="nonprint">
	<rect x="0" class="st4" width="426" height="183.3"/>
	<rect x="464.7" class="st4" width="426" height="183.3"/>
</g>
<g id="logo">
	
		<use xlink:href="#Logo_1"  width="426" height="183.3" x="-213" y="-91.6" transform="matrix(1 0 0 -1 213.0178 -135.031)" style="overflow:visible;"/>
	
		<use xlink:href="#Logo_3"  width="426" height="183.3" x="-213" y="-91.6" transform="matrix(1 0 0 -1 213.0178 91.6357)" style="overflow:visible;"/>
	
		<use xlink:href="#Logo_4"  width="426" height="183.3" x="-213" y="-91.6" transform="matrix(1 0 0 -1 677.6845 91.6357)" style="overflow:visible;"/>
	
		<use xlink:href="#Logo_2"  width="426" height="183.3" x="-213" y="-91.6" transform="matrix(1 0 0 -1 678.3511 -135.031)" style="overflow:visible;"/>
</g>
</svg>
